PathFileType	4	(X/Y/Z)	..\data\2014048\dynamic\2014048_C4_01.trc
DataRate	CameraRate	NumFrames	NumMarkers	Units	OrigDataRate	OrigDataStartFrame	OrigNumFrames
100.000000	100.000000	4	52	mm	100.000000	23	186
Frame#	Time	L_IAS			L_IPS			R_IPS			R_IAS			L_FTC			L_FLE			L_FME			L_FAX			L_TTC			L_FAL			L_TAM			L_FCC			L_FM1			L_FM2			L_FM5			R_FTC			R_FLE			R_FME			R_FAX			R_TTC			R_FAL			R_TAM			R_FCC			R_FM1			R_FM2			R_FM5			CV7			TV10			SXS			SJN			L_SIA			L_SRS			L_SAA			L_SAE			L_HLE			L_HME			L_UOA			L_RSP			L_UHE			L_HM2			L_HM5			R_SIA			R_SRS			R_SAA			R_SAE			R_HLE			R_HME			R_UOA			R_RSP			R_UHE			R_HM2			R_HM5			
		X1	Y1	Z1	X2	Y2	Z2	X3	Y3	Z3	X4	Y4	Z4	X5	Y5	Z5	X6	Y6	Z6	X7	Y7	Z7	X8	Y8	Z8	X9	Y9	Z9	X10	Y10	Z10	X11	Y11	Z11	X12	Y12	Z12	X13	Y13	Z13	X14	Y14	Z14	X15	Y15	Z15	X16	Y16	Z16	X17	Y17	Z17	X18	Y18	Z18	X19	Y19	Z19	X20	Y20	Z20	X21	Y21	Z21	X22	Y22	Z22	X23	Y23	Z23	X24	Y24	Z24	X25	Y25	Z25	X26	Y26	Z26	X27	Y27	Z27	X28	Y28	Z28	X29	Y29	Z29	X30	Y30	Z30	X31	Y31	Z31	X32	Y32	Z32	X33	Y33	Z33	X34	Y34	Z34	X35	Y35	Z35	X36	Y36	Z36	X37	Y37	Z37	X38	Y38	Z38	X39	Y39	Z39	X40	Y40	Z40	X41	Y41	Z41	X42	Y42	Z42	X43	Y43	Z43	X44	Y44	Z44	X45	Y45	Z45	X46	Y46	Z46	X47	Y47	Z47	X48	Y48	Z48	X49	Y49	Z49	X50	Y50	Z50	X51	Y51	Z51	X52	Y52	Z52	

24	0.23	273.6381225585938	880.970397949219	-337.2541809082032	74.20045471191408	934.2252197265627	-267.8251342773438	75.03466796875001	941.6376953125002	-160.355453491211	280.2777099609376	892.0720825195315	-99.73793792724612	194.2558135986329	861.3440551757815	-397.8324279785157	177.1243896484375	436.2465820312501	-375.8530883789063	207.7375793457032	420.3453063964845	-248.8784790039063	135.6094818115235	392.4465637207032	-379.9847106933594	181.1168823242188	351.9505004882813	-330.6365661621094	-104.2001419067383	177.152587890625	-338.0012512207032	-63.40241622924806	168.0591278076172	-258.4989929199219	-155.4476928710938	185.488510131836	-275.0585937500001	-55.54504776000978	40.39516067504884	-260.5373229980469	-54.9036102294922	39.40392303466798	-308.7782592773438	-103.8687210083008	56.94198608398439	-351.7930908203126	203.2703704833985	869.9871215820315	-18.90613174438477	278.1428527832032	445.7179260253907	-77.23113250732423	283.6130065917969	448.6682739257814	-209.2149810791016	273.0599975585938	389.9862060546876	-75.33631896972658	328.4840393066407	394.2312927246095	-133.8546905517578	286.7849121093751	61.87651824951173	-107.2865295410157	304.3251647949219	83.4664764404297	-192.4971160888672	242.8442382812501	23.5647029876709	-159.4170074462891	423.9114074707032	23.01996231079102	-174.8269653320313	423.6004943847657	34.44905090332032	-121.8512802124024	374.6922302246094	22.73968315124512	-81.68481445312501	121.4678192138672	1395.362182617188	-219.5964050292969	74.85165405273439	1113.063842773438	-221.3430938720704	293.5447692871094	1091.006958007813	-211.9776916503907	237.0014801025391	1314.204467773438	-217.9776916503907	50.08504867553712	1176.323974609375	-296.6976928710938	79.89573669433595	1317.239379882813	-302.8682861328126	123.7514114379883	1322.638305664063	-378.5036621093751	171.4782257080078	1327.438598632813	-386.0214843750001	149.4433898925782	1016.14453125	-456.4058532714845	133.4278411865235	1003.243225097656	-375.1458435058594	126.8488311767578	985.4786376953127	-420.0902099609376	285.9103698730469	806.044372558594	-431.1636657714845	229.7935638427735	797.7581176757815	-485.2219848632814	322.8015441894532	723.6968994140626	-437.3227539062501	242.3892669677735	719.0177001953126	-491.1720275878907	55.22409439086915	1168.809326171875	-132.1038208007813	76.78972625732423	1313.014038085938	-135.0655670166016	124.5247955322266	1319.901489257813	-58.8815269470215	172.08740234375	1317.418823242188	-40.43419647216798	108.1844329833985	1008.865600585938	9.172792434692385	105.7149124145508	998.3707275390627	-72.70776367187501	87.81694793701173	991.2861938476565	-26.06883621215821	193.5378570556641	776.654724121094	17.02987098693848	119.1387939453125	779.6811523437502	44.91377258300782	199.4578704833985	684.7626953125001	25.33648490905762	108.000358581543	706.3081665039064	51.04793548583986	
25	0.24	282.0425109863282	881.9500732421877	-335.7890930175782	82.80062866210939	935.217956542969	-266.7417297363282	83.7040252685547	942.8502197265627	-159.181381225586	288.7661132812501	892.6604003906252	-98.41754150390628	202.9315490722657	862.2971191406252	-396.6201782226564	196.5790252685547	436.9021606445314	-376.2887573242188	227.7446899414063	421.1065063476564	-249.2123413085938	155.5397491455078	393.3875427246095	-380.4531250000001	200.6191558837891	352.8992309570313	-330.9523620605469	-88.7590789794922	184.3407440185547	-338.3652954101563	-48.22911071777345	173.9290313720703	-258.8954772949219	-139.7657318115235	194.4744415283204	-275.5294494628907	-45.32767486572266	44.44757843017579	-261.8515319824219	-44.7203483581543	42.97396469116212	-309.4723205566407	-92.53064727783205	64.2393035888672	-352.8057250976563	211.7112884521485	870.8386840820315	-17.65362167358399	281.3418884277344	445.6709899902345	-76.49098205566408	286.0792236328126	448.5818481445314	-208.5951843261719	275.5882873535157	389.9064941406251	-74.69648742675783	330.9867248535157	393.809539794922	-133.3513946533203	286.8763732910157	61.7715530395508	-107.3784408569336	304.1069641113282	83.54681396484376	-192.5227661132813	242.7926177978516	23.4697322845459	-159.4647064208985	423.8495483398439	22.81486701965332	-174.7489776611328	423.6285705566407	34.32567596435548	-121.8234481811524	374.6099548339844	22.63064956665039	-81.58998870849611	130.496810913086	1396.505249023438	-218.0536193847657	83.83650970458986	1114.214721679688	-219.6485137939454	302.3975524902344	1092.053344726563	-210.8726043701172	245.9566497802735	1315.36328125	-216.7759094238282	58.86099243164064	1177.228149414063	-294.3830566406251	88.56427001953126	1318.198974609375	-300.9530639648438	131.9162902832032	1323.503540039063	-376.8514099121094	179.5696716308594	1328.30126953125	-384.7445068359376	154.7428131103516	1016.957275390625	-453.8070373535157	139.2491302490235	1004.48046875	-372.5534667968751	131.9502105712891	987.0300292968752	-417.223602294922	286.3327636718751	803.759948730469	-429.8707885742189	229.5480499267579	796.940124511719	-483.4407043457032	320.8030700683594	720.3350830078126	-436.0747375488282	239.8798065185547	717.8637084960939	-489.2972717285157	64.70640563964845	1170.016723632813	-129.8417358398438	86.20410919189455	1314.25	-133.2477264404297	134.1779479980469	1321.302734375	-57.24141311645509	181.9263000488282	1318.81884765625	-39.07356643676759	120.7945327758789	1009.609802246094	11.9196367263794	117.0858001708985	999.0983886718752	-69.77005767822267	100.0081634521485	991.7059326171877	-22.84038352966309	210.0747070312501	778.7647705078127	18.36901473999024	135.9685821533203	780.4346313476565	47.05860900878907	218.5271301269532	687.5993652343751	26.76852607727051	126.6627578735352	706.7121582031251	53.18323516845705	
26	0.25	290.2648925781251	882.8878173828127	-334.5326232910157	91.12709045410158	936.1511230468752	-265.7692260742188	92.13773345947267	943.9271240234377	-158.1600494384766	297.0990600585938	893.2205200195315	-97.12954711914065	211.2866973876954	863.2056884765627	-395.5206909179689	215.9694061279297	437.8522338867189	-376.4979248046876	247.1661987304688	422.3754272460939	-249.1732940673829	175.4881439208985	394.4918212890626	-380.6398010253907	220.1697845458985	354.1589660644532	-330.8564453125001	-72.58057403564455	191.0254821777344	-338.4824218750001	-32.32137680053712	179.4441223144532	-259.0301818847657	-123.4667663574219	202.2528991699219	-275.7554931640626	-32.8705062866211	48.56738662719728	-263.5782775878907	-32.31745147705079	46.89045715332032	-310.6188964843751	-79.26899719238283	71.51628875732423	-354.0655517578126	219.9599304199219	871.5773925781252	-16.55351066589356	284.4734497070313	445.6170654296876	-75.8418655395508	288.5835571289063	448.5332946777345	-208.0466003417969	278.0672607421876	389.8358764648439	-74.1509246826172	333.4064941406251	393.4038391113282	-132.9143371582032	286.9461669921876	61.67394256591798	-107.4833297729492	303.8428649902344	83.6576385498047	-192.5652160644532	242.7056884765626	23.39278411865235	-159.5130767822266	423.781463623047	22.54512596130371	-174.6630096435547	423.6266174316407	34.15631484985352	-121.8028030395508	374.5067749023438	22.48468399047852	-81.50762176513673	139.4687805175782	1397.592651367188	-216.5859527587891	92.64614868164064	1115.3359375	-218.0606079101563	311.0708007812501	1092.826782226563	-209.9304199218751	254.8290557861329	1316.37109375	-215.6643829345704	67.43149566650392	1178.135986328125	-292.1477661132813	97.16522216796878	1319.138549804688	-299.1419067382813	140.0428924560547	1324.286743164063	-375.2938842773438	187.6327209472657	1329.035034179688	-383.5462951660157	160.1721649169922	1017.681945800781	-451.2854003906251	145.1756439208985	1005.561706542969	-370.0553283691407	137.2015380859375	988.5285644531252	-414.4564819335939	286.6407775878907	801.4337158203127	-428.6138000488282	229.2504425048829	796.1617431640627	-481.7191467285157	318.6168212890626	716.9955444335939	-434.8968811035157	237.2860107421876	716.8272705078126	-487.5410461425782	74.01406860351564	1171.181030273438	-127.6773376464844	95.51523590087892	1315.451904296875	-131.5016021728516	143.7437896728516	1322.59228515625	-55.65732955932619	191.6865692138672	1320.066650390625	-37.7977638244629	133.5630950927735	1010.233825683594	14.70456314086914	128.4816589355469	999.6182861328127	-66.73977661132814	112.3640823364258	991.9827270507815	-19.5381031036377	226.8251342773438	780.8500976562502	19.62509346008301	153.0616455078125	781.1488037109377	49.2589797973633	237.8717956542969	690.4724121093751	28.2098789215088	145.6271209716797	707.1373901367189	55.42820358276369	
27	0.26	298.3683471679688	883.8359985351565	-333.4692077636719	99.22962951660159	937.048034667969	-264.9045104980469	100.3626937866211	944.886169433594	-157.2941589355469	305.2848815917969	893.7834472656252	-95.86254882812501	219.4004516601563	864.1126708984377	-394.5247497558595	235.1864776611329	439.1367492675782	-376.4950866699219	265.9667968750001	424.1358947753907	-248.8064117431641	195.3224487304688	395.824676513672	-380.5680541992188	239.6897277832032	355.7411804199219	-330.4302368164063	-55.71946716308595	197.0538787841797	-338.3533325195313	-15.66912174224854	184.4481811523438	-258.9289550781251	-106.5933685302735	208.654037475586	-275.7022399902344	-18.13013076782227	52.56233978271486	-265.7016296386719	-17.66886520385743	50.99835205078126	-312.2224121093751	-64.10491943359376	78.50718688964845	-355.5321350097657	228.0394287109376	872.2114257812502	-15.60970973968506	287.5482177734376	445.5636291503907	-75.2803192138672	291.1569824218751	448.5269775390626	-207.564926147461	280.5131530761719	389.7828063964845	-73.6987762451172	335.7622375488282	393.0172119140626	-132.537841796875	287.0034790039063	61.5923538208008	-107.6010971069336	303.5737304687501	83.78524017333986	-192.6347351074219	242.5944976806641	23.33936500549317	-159.5589904785157	423.7130737304689	22.23274803161621	-174.5814056396485	423.6089172363282	33.9611930847168	-121.7921676635742	374.3963928222657	22.32527732849121	-81.44017028808595	148.3736724853516	1398.635864257813	-215.2000274658204	101.2875061035157	1116.435180664063	-216.5796051025391	319.5751953125001	1093.364990234375	-209.1490783691407	263.6138916015626	1317.250122070313	-214.644271850586	75.80709075927736	1179.0615234375	-290.0115966796876	105.6964950561524	1320.07177734375	-297.4441528320313	148.1388244628907	1325.014282226563	-373.8332214355469	195.6756439208985	1329.6708984375	-382.4229736328126	165.7086334228516	1018.34765625	-448.8327026367189	151.2020111083985	1006.533142089844	-367.6264343261719	142.5894012451172	989.9937133789065	-411.7720642089845	286.8540039062501	799.123962402344	-427.3924255371095	228.916488647461	795.4693603515627	-480.0505981445314	316.2675476074219	713.7393188476564	-433.7875366210939	234.6343231201172	715.9562377929689	-485.8975830078126	83.1465530395508	1172.315551757813	-125.6235656738282	104.7085113525391	1316.629272460938	-129.8355102539063	153.2081451416016	1323.789672851563	-54.13901519775392	201.3546295166016	1321.189086914063	-36.61373519897462	146.490951538086	1010.77685546875	17.50024032592774	139.9290924072266	999.9673461914065	-63.64731979370119	124.9034042358399	992.1531372070315	-16.1977653503418	243.7555084228516	782.9385986328127	20.78160858154297	170.3950805664063	781.8798828125002	51.5072479248047	257.3984985351563	693.3821411132814	29.63035774230958	164.8266296386719	707.6571044921876	57.78738021850587	
